<svg xmlns="http://www.w3.org/2000/svg"  viewBox="0 0 64 64" width="24px" height="24px"><defs><linearGradient id="T0TqVxCeq1jiqGMrAFya3a" x1="5.85" x2="58.15" y1="32" y2="32" gradientUnits="userSpaceOnUse"><stop offset="0" stop-color="#2357ff"/><stop offset=".38" stop-color="#1b6ff6"/><stop offset="1" stop-color="#0b9ee3"/></linearGradient><linearGradient id="T0TqVxCeq1jiqGMrAFya3b" x1="22.35" x2="41.65" y1="32" y2="32" gradientUnits="userSpaceOnUse"><stop offset="0" stop-color="#0c90f2"/><stop offset=".14" stop-color="#1092f2"/><stop offset=".27" stop-color="#1c97f1"/><stop offset=".4" stop-color="#2f9ff1"/><stop offset=".53" stop-color="#4babf0"/><stop offset=".66" stop-color="#6ebbee"/><stop offset=".78" stop-color="#99ceed"/><stop offset=".85" stop-color="#b3d9ec"/></linearGradient></defs><g data-name="Layer 7"><path fill="url(#T0TqVxCeq1jiqGMrAFya3a)" d="M50.5,13.5a26.15,26.15,0,1,0,0,37A26.19,26.19,0,0,0,50.5,13.5Z"/><path fill="url(#T0TqVxCeq1jiqGMrAFya3b)" d="M34.83,32l6.23-6.23a2,2,0,0,0-2.83-2.83L32,29.17l-6.23-6.23a2,2,0,0,0-2.83,2.83L29.17,32l-6.23,6.23a2,2,0,1,0,2.83,2.83L32,34.83l6.23,6.23a2,2,0,0,0,2.83-2.83Z"/><path d="M50.5,13.5a26.15,26.15,0,1,0,0,37A26.19,26.19,0,0,0,50.5,13.5ZM47.67,47.67a22.16,22.16,0,1,1,0-31.35A22.19,22.19,0,0,1,47.67,47.67Z"/></g></svg>