<svg xmlns="http://www.w3.org/2000/svg"  viewBox="0 0 64 64" width="24px" height="24px"><defs><linearGradient id="k6l74LuZgmeCUFvSdS1H_a" x1="4.71" x2="52.79" y1="35.25" y2="35.25" gradientUnits="userSpaceOnUse"><stop offset="0" stop-color="#2357ff"/><stop offset=".38" stop-color="#1b6ff6"/><stop offset="1" stop-color="#0b9ee3"/></linearGradient><linearGradient id="k6l74LuZgmeCUFvSdS1H_b" x1="42.29" x2="59.29" y1="13.21" y2="13.21" gradientUnits="userSpaceOnUse"><stop offset="0" stop-color="#0c90f2"/><stop offset=".14" stop-color="#1092f2"/><stop offset=".27" stop-color="#1c97f1"/><stop offset=".4" stop-color="#2f9ff1"/><stop offset=".53" stop-color="#4babf0"/><stop offset=".66" stop-color="#6ebbee"/><stop offset=".78" stop-color="#99ceed"/><stop offset=".85" stop-color="#b3d9ec"/></linearGradient></defs><g data-name="Layer 78"><path fill="url(#k6l74LuZgmeCUFvSdS1H_a)" d="M50.79,23.71a4,4,0,0,1-4-4v-2.5h-2.5a4,4,0,0,1-4-4,4,4,0,0,1,.56-2H12.5A7.79,7.79,0,0,0,4.71,19V51.5a7.79,7.79,0,0,0,7.79,7.79H45a7.79,7.79,0,0,0,7.79-7.79V23.16A4,4,0,0,1,50.79,23.71Z"/><path fill="url(#k6l74LuZgmeCUFvSdS1H_b)" d="M57.29,11.21h-4.5V6.71a2,2,0,0,0-4,0v4.5h-4.5a2,2,0,0,0,0,4h4.5v4.5a2,2,0,0,0,4,0v-4.5h4.5a2,2,0,0,0,0-4Z"/><path d="M50.79,24.28a2,2,0,0,0-2,2V51.5A3.79,3.79,0,0,1,45,55.29H12.5A3.79,3.79,0,0,1,8.71,51.5V19a3.79,3.79,0,0,1,3.79-3.79H37.72a2,2,0,0,0,0-4H12.5A7.79,7.79,0,0,0,4.71,19V51.5a7.79,7.79,0,0,0,7.79,7.79H45a7.79,7.79,0,0,0,7.79-7.79V26.28A2,2,0,0,0,50.79,24.28Z"/><path d="M57.29,11.21h-4.5V6.71a2,2,0,0,0-4,0v4.5h-4.5a2,2,0,0,0,0,4h4.5v4.5a2,2,0,0,0,4,0v-4.5h4.5a2,2,0,0,0,0-4Z"/></g></svg>