<svg xmlns="http://www.w3.org/2000/svg" xmlns:xlink="http://www.w3.org/1999/xlink" viewBox="0 0 64 64" width="24px" height="24px"><defs><linearGradient id="9FKSjZ0FfP0SWQQErgO_bb" x1="11.6" x2="52.02" y1="37.3" y2="37.3" gradientUnits="userSpaceOnUse"><stop offset="0" stop-color="#2357ff"/><stop offset=".38" stop-color="#1b6ff6"/><stop offset="1" stop-color="#0b9ee3"/></linearGradient><linearGradient id="9FKSjZ0FfP0SWQQErgO_ba" x1="20.94" x2="24.94" y1="37.3" y2="37.3" gradientUnits="userSpaceOnUse"><stop offset="0" stop-color="#0c90f2"/><stop offset=".14" stop-color="#1092f2"/><stop offset=".27" stop-color="#1c97f1"/><stop offset=".4" stop-color="#2f9ff1"/><stop offset=".53" stop-color="#4babf0"/><stop offset=".66" stop-color="#6ebbee"/><stop offset=".78" stop-color="#99ceed"/><stop offset=".85" stop-color="#b3d9ec"/></linearGradient><linearGradient id="9FKSjZ0FfP0SWQQErgO_bc" x1="29.81" x2="33.81" y1="37.3" y2="37.3" xlink:href="#9FKSjZ0FfP0SWQQErgO_ba"/><linearGradient id="9FKSjZ0FfP0SWQQErgO_bd" x1="38.67" x2="42.67" y1="37.3" y2="37.3" xlink:href="#9FKSjZ0FfP0SWQQErgO_ba"/><linearGradient id="9FKSjZ0FfP0SWQQErgO_be" x1="7.11" x2="56.89" y1="9.3" y2="9.3" xlink:href="#9FKSjZ0FfP0SWQQErgO_ba"/></defs><g data-name="Layer 61"><path fill="url(#9FKSjZ0FfP0SWQQErgO_bb)" d="M50,12.6H13.6a2,2,0,0,0-2,2V56.54A5.46,5.46,0,0,0,17.06,62h29.5A5.46,5.46,0,0,0,52,56.54V14.6A2,2,0,0,0,50,12.6Z"/><path fill="url(#9FKSjZ0FfP0SWQQErgO_ba)" d="M22.94,20.85a2,2,0,0,0-2,2v28.9a2,2,0,0,0,4,0V22.85A2,2,0,0,0,22.94,20.85Z"/><path fill="url(#9FKSjZ0FfP0SWQQErgO_bc)" d="M31.81,20.85a2,2,0,0,0-2,2v28.9a2,2,0,0,0,4,0V22.85A2,2,0,0,0,31.81,20.85Z"/><path fill="url(#9FKSjZ0FfP0SWQQErgO_bd)" d="M40.67,20.85a2,2,0,0,0-2,2v28.9a2,2,0,0,0,4,0V22.85A2,2,0,0,0,40.67,20.85Z"/><path fill="url(#9FKSjZ0FfP0SWQQErgO_be)" d="M54.89,12.6H42.67v-.93A9.68,9.68,0,0,0,33,2H30.61a9.68,9.68,0,0,0-9.67,9.67v.93H9.11a2,2,0,0,0,0,4H54.89a2,2,0,0,0,0-4Zm-30,0v-.93A5.67,5.67,0,0,1,30.61,6H33a5.67,5.67,0,0,1,5.67,5.67v.93Z"/><path d="M54.89,12.6H42.67v-.93A9.68,9.68,0,0,0,33,2H30.61a9.68,9.68,0,0,0-9.67,9.67v.93H9.11a2,2,0,0,0,0,4H11.6V56.54A5.46,5.46,0,0,0,17.06,62h29.5A5.46,5.46,0,0,0,52,56.54V16.6h2.88a2,2,0,0,0,0-4Zm-30-.93A5.67,5.67,0,0,1,30.61,6H33a5.67,5.67,0,0,1,5.67,5.67v.93H24.94ZM48,56.54A1.46,1.46,0,0,1,46.56,58H17.06a1.46,1.46,0,0,1-1.46-1.46V16.6H48Z"/></g></svg>