<svg xmlns="http://www.w3.org/2000/svg" xmlns:xlink="http://www.w3.org/1999/xlink" viewBox="0 0 64 64" width="24px" height="24px"><defs><linearGradient id="oUr5Flh45487piPm9_Szea" x1="18.03" x2="62" y1="29.3" y2="29.3" gradientUnits="userSpaceOnUse"><stop offset="0" stop-color="#2357ff"/><stop offset=".38" stop-color="#1b6ff6"/><stop offset="1" stop-color="#0b9ee3"/></linearGradient><linearGradient id="oUr5Flh45487piPm9_Szeb" x1="2" x2="22.03" y1="36.08" y2="36.08" gradientUnits="userSpaceOnUse"><stop offset="0" stop-color="#0c90f2"/><stop offset=".14" stop-color="#1092f2"/><stop offset=".27" stop-color="#1c97f1"/><stop offset=".4" stop-color="#2f9ff1"/><stop offset=".53" stop-color="#4babf0"/><stop offset=".66" stop-color="#6ebbee"/><stop offset=".78" stop-color="#99ceed"/><stop offset=".85" stop-color="#b3d9ec"/></linearGradient><linearGradient id="oUr5Flh45487piPm9_Szec" x1="8.02" x2="15.12" y1="44.38" y2="44.38" xlink:href="#oUr5Flh45487piPm9_Szea"/><linearGradient id="oUr5Flh45487piPm9_Szed" x1="36.59" x2="62" y1="46.79" y2="46.79" xlink:href="#oUr5Flh45487piPm9_Szeb"/><linearGradient id="oUr5Flh45487piPm9_Szee" x1="42.28" x2="56.31" y1="46.8" y2="46.8" xlink:href="#oUr5Flh45487piPm9_Szea"/></defs><g data-name="Layer 97"><path fill="url(#oUr5Flh45487piPm9_Szea)" d="M60.78,23.95a6.22,6.22,0,0,0-5.06-2.56H42.32L44,9a2.06,2.06,0,0,0,0-.35A4.41,4.41,0,0,0,39.62,4.4h-4a4.43,4.43,0,0,0-4.12,2.8l-7.34,15H20a2,2,0,0,0-2,2V47.95a2,2,0,0,0,.74,1.55L24,53.75a2,2,0,0,0,1.26.45H46.37a9.71,9.71,0,0,0,9.31-6.82l6-17.84A6.22,6.22,0,0,0,60.78,23.95Z"/><rect width="20.03" height="36.65" x="2" y="17.76" fill="url(#oUr5Flh45487piPm9_Szeb)" rx="4.81" ry="4.81"/><circle cx="11.57" cy="44.38" r="3.55" fill="url(#oUr5Flh45487piPm9_Szec)"/><path fill="url(#oUr5Flh45487piPm9_Szed)" d="M49.29,34.09A12.71,12.71,0,1,0,62,46.79,12.72,12.72,0,0,0,49.29,34.09Z"/><path fill="url(#oUr5Flh45487piPm9_Szee)" d="M54.31,44.79h-3v-3a2,2,0,0,0-4,0v3h-3a2,2,0,0,0,0,4h3v3a2,2,0,0,0,4,0v-3h3a2,2,0,0,0,0-4Z"/><path d="M58.76,38.35l2.95-8.72a6.28,6.28,0,0,0-6-8.15H42.32L44,9.1a2,2,0,0,0,0-.35A4.41,4.41,0,0,0,39.62,4.5H35.57a4.42,4.42,0,0,0-4.12,2.81l-7.35,15H22a4.8,4.8,0,0,0-4.77-4.46H6.81A4.81,4.81,0,0,0,2,22.66v27A4.81,4.81,0,0,0,6.81,54.5H17.22a4.8,4.8,0,0,0,4.28-2.67l2.46,2a2,2,0,0,0,1.27.45H39.07a12.69,12.69,0,1,0,19.7-15.95ZM18,49.69a.81.81,0,0,1-.81.81H6.81A.81.81,0,0,1,6,49.69v-27a.81.81,0,0,1,.81-.81H17.22a.81.81,0,0,1,.81.81Zm7.92.61L22,47.1V26.32h3.32a2,2,0,0,0,1.8-1.12L35.09,9a1.92,1.92,0,0,0,.09-.21.42.42,0,0,1,.39-.27h4.05a.43.43,0,0,1,.4.3L38,23.22a2,2,0,0,0,2,2.27H55.72a2.28,2.28,0,0,1,2.19,2.91l-2.46,7.28A12.68,12.68,0,0,0,37.09,50.3Zm23.35,5.2A8.71,8.71,0,1,1,58,46.79,8.72,8.72,0,0,1,49.29,55.5Z"/></g></svg>