<svg xmlns="http://www.w3.org/2000/svg" xmlns:xlink="http://www.w3.org/1999/xlink" viewBox="0 0 64 64" width="24px" height="24px"><defs><linearGradient id="zjIqNS-9yjVdKMGMyRqeba" x1="18.03" x2="62" y1="31.9" y2="31.9" gradientUnits="userSpaceOnUse"><stop offset="0" stop-color="#2357ff"/><stop offset=".38" stop-color="#1b6ff6"/><stop offset="1" stop-color="#0b9ee3"/></linearGradient><linearGradient id="zjIqNS-9yjVdKMGMyRqebb" x1="2" x2="22.03" y1="38.68" y2="38.68" gradientUnits="userSpaceOnUse"><stop offset="0" stop-color="#0c90f2"/><stop offset=".14" stop-color="#1092f2"/><stop offset=".27" stop-color="#1c97f1"/><stop offset=".4" stop-color="#2f9ff1"/><stop offset=".53" stop-color="#4babf0"/><stop offset=".66" stop-color="#6ebbee"/><stop offset=".78" stop-color="#99ceed"/><stop offset=".85" stop-color="#b3d9ec"/></linearGradient><linearGradient id="zjIqNS-9yjVdKMGMyRqebc" x1="8.02" x2="15.12" y1="46.98" y2="46.98" xlink:href="#zjIqNS-9yjVdKMGMyRqeba"/></defs><g data-name="Layer 76"><path fill="url(#zjIqNS-9yjVdKMGMyRqeba)" d="M60.78,26.55A6.22,6.22,0,0,0,55.71,24H42.32L44,11.6a2.06,2.06,0,0,0,0-.35A4.41,4.41,0,0,0,39.62,7h-4a4.43,4.43,0,0,0-4.12,2.8l-7.34,15H20a2,2,0,0,0-2,2V50.55a2,2,0,0,0,.74,1.55L24,56.35a2,2,0,0,0,1.26.45H46.37A9.71,9.71,0,0,0,55.68,50l6-17.84A6.22,6.22,0,0,0,60.78,26.55Z"/><rect width="20.03" height="36.65" x="2" y="20.36" fill="url(#zjIqNS-9yjVdKMGMyRqebb)" rx="4.81" ry="4.81"/><circle cx="11.57" cy="46.98" r="3.55" fill="url(#zjIqNS-9yjVdKMGMyRqebc)"/><path d="M60.78,26.55A6.22,6.22,0,0,0,55.71,24H42.32L44,11.6a2.06,2.06,0,0,0,0-.35A4.41,4.41,0,0,0,39.62,7h-4a4.43,4.43,0,0,0-4.12,2.8l-7.34,15H22a4.8,4.8,0,0,0-4.77-4.46H6.81A4.81,4.81,0,0,0,2,25.16v27A4.81,4.81,0,0,0,6.81,57H17.22a4.8,4.8,0,0,0,4.28-2.67l2.47,2a2,2,0,0,0,1.26.45H46.37A9.71,9.71,0,0,0,55.68,50l6-17.84A6.22,6.22,0,0,0,60.78,26.55ZM18,52.19a.81.81,0,0,1-.81.81H6.81A.81.81,0,0,1,6,52.19v-27a.81.81,0,0,1,.81-.81H17.22a.81.81,0,0,1,.81.81v27ZM57.91,30.9l-6,17.84a5.75,5.75,0,0,1-5.51,4.05H25.95L22,49.6V28.81h3.33a2,2,0,0,0,1.8-1.12l7.93-16.23a2.11,2.11,0,0,0,.08-.2.42.42,0,0,1,.4-.28h4a.42.42,0,0,1,.4.3L38,25.71A2,2,0,0,0,40,28H55.71a2.28,2.28,0,0,1,2.19,2.92Z"/></g></svg>